<svg width="24" height="24" fill="none" xmlns="http://www.w3.org/2000/svg"><path d="M8.013 12.945c1.646 0 2.976 1.342 2.976 2.996v3.063A2.986 2.986 0 0 1 8.013 22H4.976A2.986 2.986 0 0 1 2 19.005V15.94a2.986 2.986 0 0 1 2.976-2.996h3.037Zm11.012 0c1.645 0 2.975 1.343 2.975 2.996v3.063C22 20.657 20.67 22 19.025 22h-3.038a2.986 2.986 0 0 1-2.976-2.995V15.94c0-1.654 1.33-2.996 2.976-2.996h3.038ZM8.013 14.34H4.976a1.59 1.59 0 0 0-1.58 1.601v3.063c0 .886.708 1.6 1.58 1.6h3.037a1.59 1.59 0 0 0 1.58-1.6v-3.063a1.59 1.59 0 0 0-1.58-1.6Zm11.012 0h-3.038a1.59 1.59 0 0 0-1.58 1.601v3.063c0 .886.708 1.6 1.58 1.6h3.038c.87 0 1.58-.714 1.58-1.6v-3.063a1.59 1.59 0 0 0-1.58-1.6Zm0-12.34C20.67 2 22 3.343 22 4.996V8.06c0 1.652-1.331 2.995-2.975 2.995h-3.038c-1.645 0-2.976-1.343-2.976-2.995V4.996A2.986 2.986 0 0 1 15.987 2h3.038ZM8.013 2a2.986 2.986 0 0 1 2.976 2.996V8.06c0 1.652-1.331 2.995-2.976 2.995H4.976A2.986 2.986 0 0 1 2 8.06V4.996A2.986 2.986 0 0 1 4.976 2h3.037Zm11.012 1.395h-3.038a1.59 1.59 0 0 0-1.58 1.6V8.06c0 .884.708 1.6 1.58 1.6h3.038c.87 0 1.58-.716 1.58-1.6V4.996c0-.886-.71-1.6-1.58-1.6Zm-11.012 0H4.976a1.59 1.59 0 0 0-1.58 1.6V8.06c0 .884.709 1.6 1.58 1.6h3.037a1.59 1.59 0 0 0 1.58-1.6V4.996c0-.886-.708-1.6-1.58-1.6Z" fill="#0351DF"/></svg>