<svg width="24" height="24" fill="none" xmlns="http://www.w3.org/2000/svg"><path d="M16.359 2C19.75 2 22 4.417 22 7.893v8.214C22 19.583 19.75 22 16.359 22H7.64C4.25 22 2 19.583 2 16.107V7.893C2 4.42 4.256 2 7.641 2h8.718Zm0 1.395H7.64c-2.592 0-4.246 1.774-4.246 4.498v8.214c0 2.727 1.649 4.498 4.246 4.498h8.718c2.597 0 4.246-1.77 4.246-4.498V7.893c0-2.727-1.649-4.498-4.246-4.498ZM7.694 9.63c.354 0 .645.263.692.604l.006.094v6.382a.698.698 0 0 1-1.389.094l-.006-.094v-6.382c0-.385.312-.697.697-.697Zm4.341-3.053c.354 0 .646.262.692.603l.006.095v9.435a.698.698 0 0 1-1.389.094l-.006-.094V7.274c0-.386.312-.698.697-.698Zm4.27 6.426c.354 0 .646.262.692.603l.006.094v3.01a.698.698 0 0 1-1.389.094l-.006-.094v-3.01c0-.385.312-.697.698-.697Z" fill="#0351DF"/></svg>