<svg width="24" height="24" fill="none" xmlns="http://www.w3.org/2000/svg"><path d="m21.705 4.591-.037.141-4.645 15.64c-.461 1.55-2.483 1.86-3.397.581l-.087-.133-3.896-6.454-6.476-3.986c-1.376-.847-1.15-2.894.32-3.447l.15-.05 15.657-4.556c1.415-.41 2.722.859 2.41 2.264Zm-1.92-.838-.073.015L4.056 8.323c-.326.095-.406.513-.168.73l.066.05 6.124 3.769 5.245-5.28a.75.75 0 0 1 .977-.075l.084.072a.75.75 0 0 1 .076.976l-.073.085-5.252 5.286 3.688 6.109c.176.29.586.262.732-.024l.03-.076 4.645-15.64a.427.427 0 0 0-.445-.552Z" fill="#0351DF"/></svg>