<svg width="24" height="24" fill="none" xmlns="http://www.w3.org/2000/svg"><path d="m12.002 4 .286.005c3.931.13 7.462 2.896 9.509 7.38l.14.314a.74.74 0 0 1 .002.595C19.871 17.077 16.14 20 11.998 20l-.286-.005c-3.937-.13-7.466-2.902-9.508-7.378l-.143-.323a.741.741 0 0 1 0-.588C4.129 6.923 7.86 4 12.002 4Zm.007 1.49c-3.318 0-6.398 2.283-8.282 6.176L3.57 12l.17.36c1.786 3.675 4.643 5.913 7.74 6.132l.267.014.257.004.255-.004c3.298-.12 6.34-2.505 8.16-6.482l.01-.024c-1.776-3.893-4.717-6.264-7.914-6.49l-.267-.014-.239-.006Zm-.01 2.623c2.161 0 3.912 1.74 3.912 3.887 0 2.146-1.751 3.886-3.912 3.886-2.16 0-3.91-1.74-3.91-3.886 0-2.147 1.75-3.887 3.91-3.887Zm0 1.49A2.403 2.403 0 0 0 9.59 12a2.403 2.403 0 0 0 2.41 2.396A2.404 2.404 0 0 0 14.412 12 2.404 2.404 0 0 0 12 9.604Z" fill="#0351DF"/></svg>